<mxfile host="app.diagrams.net" agent="Mozilla/5.0 (Windows NT 10.0; Win64; x64) AppleWebKit/537.36 (KHTML, like Gecko) Chrome/122.0.0.0 Safari/537.36" version="24.9.2" pages="3">
  <diagram id="prtHgNgQTEPvFCAcTncT" name="群发流程泳道图">
    <mxGraphModel dx="1434" dy="746" grid="1" gridSize="10" guides="1" tooltips="1" connect="1" arrows="1" fold="1" page="1" pageScale="1" pageWidth="827" pageHeight="1169" math="0" shadow="0">
      <root>
        <mxCell id="0" />
        <mxCell id="1" parent="0" />
        <mxCell id="Re6H-iWXXiqvqcsGuJTi-1" value="九天消息群发系统流程图" style="swimlane;childLayout=stackLayout;resizeParent=1;resizeParentMax=0;startSize=20;html=1;" vertex="1" parent="1">
          <mxGeometry x="190" y="40" width="500" height="610" as="geometry" />
        </mxCell>
        <mxCell id="Re6H-iWXXiqvqcsGuJTi-2" value="用户" style="swimlane;startSize=20;html=1;" vertex="1" parent="Re6H-iWXXiqvqcsGuJTi-1">
          <mxGeometry y="20" width="120" height="590" as="geometry" />
        </mxCell>
        <mxCell id="Re6H-iWXXiqvqcsGuJTi-16" style="edgeStyle=orthogonalEdgeStyle;rounded=0;orthogonalLoop=1;jettySize=auto;html=1;entryX=0.5;entryY=0;entryDx=0;entryDy=0;" edge="1" parent="Re6H-iWXXiqvqcsGuJTi-2" source="Re6H-iWXXiqvqcsGuJTi-13" target="Re6H-iWXXiqvqcsGuJTi-14">
          <mxGeometry relative="1" as="geometry" />
        </mxCell>
        <mxCell id="Re6H-iWXXiqvqcsGuJTi-13" value="finder创建群发任务" style="rounded=0;whiteSpace=wrap;html=1;" vertex="1" parent="Re6H-iWXXiqvqcsGuJTi-2">
          <mxGeometry x="12.5" y="40" width="95" height="50" as="geometry" />
        </mxCell>
        <mxCell id="Re6H-iWXXiqvqcsGuJTi-14" value="提交任务" style="rounded=0;whiteSpace=wrap;html=1;" vertex="1" parent="Re6H-iWXXiqvqcsGuJTi-2">
          <mxGeometry x="12.5" y="140" width="95" height="50" as="geometry" />
        </mxCell>
        <mxCell id="Re6H-iWXXiqvqcsGuJTi-51" style="edgeStyle=orthogonalEdgeStyle;rounded=0;orthogonalLoop=1;jettySize=auto;html=1;entryX=0.5;entryY=0;entryDx=0;entryDy=0;" edge="1" parent="Re6H-iWXXiqvqcsGuJTi-2" source="Re6H-iWXXiqvqcsGuJTi-48" target="Re6H-iWXXiqvqcsGuJTi-50">
          <mxGeometry relative="1" as="geometry" />
        </mxCell>
        <mxCell id="Re6H-iWXXiqvqcsGuJTi-48" value="查看任务执行详请" style="rounded=0;whiteSpace=wrap;html=1;" vertex="1" parent="Re6H-iWXXiqvqcsGuJTi-2">
          <mxGeometry x="12.5" y="290" width="95" height="50" as="geometry" />
        </mxCell>
        <mxCell id="Re6H-iWXXiqvqcsGuJTi-52" style="edgeStyle=orthogonalEdgeStyle;rounded=0;orthogonalLoop=1;jettySize=auto;html=1;" edge="1" parent="Re6H-iWXXiqvqcsGuJTi-2" source="Re6H-iWXXiqvqcsGuJTi-50">
          <mxGeometry relative="1" as="geometry">
            <mxPoint x="10" y="160" as="targetPoint" />
            <Array as="points">
              <mxPoint x="-100" y="430" />
              <mxPoint x="-100" y="160" />
            </Array>
          </mxGeometry>
        </mxCell>
        <mxCell id="Re6H-iWXXiqvqcsGuJTi-50" value="是否补发未成功任务" style="rhombus;whiteSpace=wrap;html=1;" vertex="1" parent="Re6H-iWXXiqvqcsGuJTi-2">
          <mxGeometry x="20" y="390" width="80" height="80" as="geometry" />
        </mxCell>
        <mxCell id="Re6H-iWXXiqvqcsGuJTi-3" value="后台" style="swimlane;startSize=20;html=1;" vertex="1" parent="Re6H-iWXXiqvqcsGuJTi-1">
          <mxGeometry x="120" y="20" width="130" height="590" as="geometry" />
        </mxCell>
        <mxCell id="Re6H-iWXXiqvqcsGuJTi-31" style="edgeStyle=orthogonalEdgeStyle;rounded=0;orthogonalLoop=1;jettySize=auto;html=1;entryX=0.5;entryY=0;entryDx=0;entryDy=0;" edge="1" parent="Re6H-iWXXiqvqcsGuJTi-3" source="Re6H-iWXXiqvqcsGuJTi-17" target="Re6H-iWXXiqvqcsGuJTi-19">
          <mxGeometry relative="1" as="geometry" />
        </mxCell>
        <mxCell id="Re6H-iWXXiqvqcsGuJTi-17" value="生成任务详情" style="rounded=0;whiteSpace=wrap;html=1;" vertex="1" parent="Re6H-iWXXiqvqcsGuJTi-3">
          <mxGeometry x="19" y="100" width="96" height="50" as="geometry" />
        </mxCell>
        <mxCell id="Re6H-iWXXiqvqcsGuJTi-19" value="向九天云推送任务" style="rounded=0;whiteSpace=wrap;html=1;" vertex="1" parent="Re6H-iWXXiqvqcsGuJTi-3">
          <mxGeometry x="20" y="190" width="95" height="50" as="geometry" />
        </mxCell>
        <mxCell id="Re6H-iWXXiqvqcsGuJTi-45" value="存储任务执行结果，并推送finder" style="rounded=0;whiteSpace=wrap;html=1;" vertex="1" parent="Re6H-iWXXiqvqcsGuJTi-3">
          <mxGeometry x="20" y="290" width="95" height="50" as="geometry" />
        </mxCell>
        <mxCell id="Re6H-iWXXiqvqcsGuJTi-4" value="九天云" style="swimlane;startSize=20;html=1;" vertex="1" parent="Re6H-iWXXiqvqcsGuJTi-1">
          <mxGeometry x="250" y="20" width="130" height="590" as="geometry" />
        </mxCell>
        <mxCell id="Re6H-iWXXiqvqcsGuJTi-34" style="edgeStyle=orthogonalEdgeStyle;rounded=0;orthogonalLoop=1;jettySize=auto;html=1;entryX=0.5;entryY=0;entryDx=0;entryDy=0;" edge="1" parent="Re6H-iWXXiqvqcsGuJTi-4" source="Re6H-iWXXiqvqcsGuJTi-27" target="Re6H-iWXXiqvqcsGuJTi-33">
          <mxGeometry relative="1" as="geometry" />
        </mxCell>
        <mxCell id="Re6H-iWXXiqvqcsGuJTi-27" value="获取到群发通知" style="rounded=0;whiteSpace=wrap;html=1;" vertex="1" parent="Re6H-iWXXiqvqcsGuJTi-4">
          <mxGeometry x="17.5" y="190" width="95" height="50" as="geometry" />
        </mxCell>
        <mxCell id="Re6H-iWXXiqvqcsGuJTi-36" style="edgeStyle=orthogonalEdgeStyle;rounded=0;orthogonalLoop=1;jettySize=auto;html=1;entryX=0.5;entryY=0;entryDx=0;entryDy=0;" edge="1" parent="Re6H-iWXXiqvqcsGuJTi-4" source="Re6H-iWXXiqvqcsGuJTi-33" target="Re6H-iWXXiqvqcsGuJTi-35">
          <mxGeometry relative="1" as="geometry" />
        </mxCell>
        <mxCell id="Re6H-iWXXiqvqcsGuJTi-33" value="拉取任务详情" style="rounded=0;whiteSpace=wrap;html=1;" vertex="1" parent="Re6H-iWXXiqvqcsGuJTi-4">
          <mxGeometry x="17.5" y="280" width="95" height="50" as="geometry" />
        </mxCell>
        <mxCell id="Re6H-iWXXiqvqcsGuJTi-35" value="素材下载，任务创建" style="rounded=0;whiteSpace=wrap;html=1;" vertex="1" parent="Re6H-iWXXiqvqcsGuJTi-4">
          <mxGeometry x="17.5" y="370" width="95" height="50" as="geometry" />
        </mxCell>
        <mxCell id="Re6H-iWXXiqvqcsGuJTi-43" value="收集结果，上报后台任务执行状态" style="rounded=0;whiteSpace=wrap;html=1;" vertex="1" parent="Re6H-iWXXiqvqcsGuJTi-4">
          <mxGeometry x="17.5" y="460" width="95" height="50" as="geometry" />
        </mxCell>
        <mxCell id="Re6H-iWXXiqvqcsGuJTi-11" value="逆向SDK" style="swimlane;startSize=20;html=1;" vertex="1" parent="Re6H-iWXXiqvqcsGuJTi-1">
          <mxGeometry x="380" y="20" width="120" height="590" as="geometry" />
        </mxCell>
        <mxCell id="Re6H-iWXXiqvqcsGuJTi-41" style="edgeStyle=orthogonalEdgeStyle;rounded=0;orthogonalLoop=1;jettySize=auto;html=1;entryX=0.5;entryY=1;entryDx=0;entryDy=0;" edge="1" parent="Re6H-iWXXiqvqcsGuJTi-11" source="Re6H-iWXXiqvqcsGuJTi-37" target="Re6H-iWXXiqvqcsGuJTi-40">
          <mxGeometry relative="1" as="geometry" />
        </mxCell>
        <mxCell id="Re6H-iWXXiqvqcsGuJTi-37" value="消息发送" style="rounded=0;whiteSpace=wrap;html=1;" vertex="1" parent="Re6H-iWXXiqvqcsGuJTi-11">
          <mxGeometry x="12.5" y="190" width="95" height="50" as="geometry" />
        </mxCell>
        <mxCell id="Re6H-iWXXiqvqcsGuJTi-40" value="推送九天云发送结果" style="rounded=0;whiteSpace=wrap;html=1;" vertex="1" parent="Re6H-iWXXiqvqcsGuJTi-11">
          <mxGeometry x="12.5" y="90" width="95" height="50" as="geometry" />
        </mxCell>
        <mxCell id="Re6H-iWXXiqvqcsGuJTi-22" style="edgeStyle=orthogonalEdgeStyle;rounded=0;orthogonalLoop=1;jettySize=auto;html=1;" edge="1" parent="Re6H-iWXXiqvqcsGuJTi-1" source="Re6H-iWXXiqvqcsGuJTi-14" target="Re6H-iWXXiqvqcsGuJTi-17">
          <mxGeometry relative="1" as="geometry" />
        </mxCell>
        <mxCell id="Re6H-iWXXiqvqcsGuJTi-32" style="edgeStyle=orthogonalEdgeStyle;rounded=0;orthogonalLoop=1;jettySize=auto;html=1;" edge="1" parent="Re6H-iWXXiqvqcsGuJTi-1" source="Re6H-iWXXiqvqcsGuJTi-19" target="Re6H-iWXXiqvqcsGuJTi-27">
          <mxGeometry relative="1" as="geometry" />
        </mxCell>
        <mxCell id="Re6H-iWXXiqvqcsGuJTi-39" style="edgeStyle=orthogonalEdgeStyle;rounded=0;orthogonalLoop=1;jettySize=auto;html=1;entryX=0.574;entryY=1.06;entryDx=0;entryDy=0;entryPerimeter=0;" edge="1" parent="Re6H-iWXXiqvqcsGuJTi-1" source="Re6H-iWXXiqvqcsGuJTi-35" target="Re6H-iWXXiqvqcsGuJTi-37">
          <mxGeometry relative="1" as="geometry" />
        </mxCell>
        <mxCell id="Re6H-iWXXiqvqcsGuJTi-46" style="edgeStyle=orthogonalEdgeStyle;rounded=0;orthogonalLoop=1;jettySize=auto;html=1;entryX=0.421;entryY=1.04;entryDx=0;entryDy=0;entryPerimeter=0;" edge="1" parent="Re6H-iWXXiqvqcsGuJTi-1" source="Re6H-iWXXiqvqcsGuJTi-43" target="Re6H-iWXXiqvqcsGuJTi-45">
          <mxGeometry relative="1" as="geometry" />
        </mxCell>
        <mxCell id="Re6H-iWXXiqvqcsGuJTi-49" style="edgeStyle=orthogonalEdgeStyle;rounded=0;orthogonalLoop=1;jettySize=auto;html=1;" edge="1" parent="Re6H-iWXXiqvqcsGuJTi-1" source="Re6H-iWXXiqvqcsGuJTi-45" target="Re6H-iWXXiqvqcsGuJTi-48">
          <mxGeometry relative="1" as="geometry" />
        </mxCell>
        <mxCell id="Re6H-iWXXiqvqcsGuJTi-44" style="edgeStyle=orthogonalEdgeStyle;rounded=0;orthogonalLoop=1;jettySize=auto;html=1;exitX=1;exitY=0.25;exitDx=0;exitDy=0;entryX=1;entryY=0.5;entryDx=0;entryDy=0;" edge="1" parent="1" target="Re6H-iWXXiqvqcsGuJTi-43">
          <mxGeometry relative="1" as="geometry">
            <mxPoint x="780" y="560" as="targetPoint" />
            <mxPoint x="677.5" y="155" as="sourcePoint" />
            <Array as="points">
              <mxPoint x="678" y="168" />
              <mxPoint x="783" y="168" />
              <mxPoint x="783" y="545" />
            </Array>
          </mxGeometry>
        </mxCell>
      </root>
    </mxGraphModel>
  </diagram>
  <diagram id="rxb7pHSNeuEpt_22N2F3" name="客户端消息模块关联图">
    <mxGraphModel grid="1" page="1" gridSize="10" guides="1" tooltips="1" connect="1" arrows="1" fold="1" pageScale="1" pageWidth="827" pageHeight="1169" math="0" shadow="0">
      <root>
        <mxCell id="0" />
        <mxCell id="1" parent="0" />
        <mxCell id="Jcjnsndz9WuinGCy42PS-1" value="服务端" style="swimlane;whiteSpace=wrap;html=1;" vertex="1" parent="1">
          <mxGeometry x="290" y="40" width="229" height="80" as="geometry" />
        </mxCell>
        <mxCell id="Jcjnsndz9WuinGCy42PS-2" value="" style="image;aspect=fixed;perimeter=ellipsePerimeter;html=1;align=center;shadow=0;dashed=0;spacingTop=3;image=img/lib/active_directory/web_server.svg;" vertex="1" parent="Jcjnsndz9WuinGCy42PS-1">
          <mxGeometry x="85.5" y="31.25" width="39" height="48.75" as="geometry" />
        </mxCell>
        <mxCell id="B8uQokDbP8Djm6eRlEMS-21" style="edgeStyle=orthogonalEdgeStyle;rounded=0;orthogonalLoop=1;jettySize=auto;html=1;" edge="1" parent="1">
          <mxGeometry relative="1" as="geometry">
            <mxPoint x="760" y="658" as="targetPoint" />
            <mxPoint x="750" y="360" as="sourcePoint" />
            <Array as="points">
              <mxPoint x="860" y="360" />
              <mxPoint x="860" y="658" />
            </Array>
          </mxGeometry>
        </mxCell>
        <mxCell id="B8uQokDbP8Djm6eRlEMS-36" value="创建需要发送的消息item" style="edgeLabel;html=1;align=center;verticalAlign=middle;resizable=0;points=[];" vertex="1" connectable="0" parent="B8uQokDbP8Djm6eRlEMS-21">
          <mxGeometry x="0.0197" y="1" relative="1" as="geometry">
            <mxPoint as="offset" />
          </mxGeometry>
        </mxCell>
        <mxCell id="Jcjnsndz9WuinGCy42PS-3" value="MessageTaskManager" style="swimlane;" vertex="1" parent="1">
          <mxGeometry x="100" y="270" width="650" height="190" as="geometry" />
        </mxCell>
        <mxCell id="Jcjnsndz9WuinGCy42PS-11" style="edgeStyle=orthogonalEdgeStyle;rounded=0;orthogonalLoop=1;jettySize=auto;html=1;" edge="1" parent="Jcjnsndz9WuinGCy42PS-3" source="Jcjnsndz9WuinGCy42PS-9" target="Jcjnsndz9WuinGCy42PS-10">
          <mxGeometry relative="1" as="geometry" />
        </mxCell>
        <mxCell id="Jcjnsndz9WuinGCy42PS-9" value="拉取任务详情" style="rounded=1;whiteSpace=wrap;html=1;fillColor=#d5e8d4;strokeColor=#82b366;" vertex="1" parent="Jcjnsndz9WuinGCy42PS-3">
          <mxGeometry x="10" y="65" width="110" height="60" as="geometry" />
        </mxCell>
        <mxCell id="Jcjnsndz9WuinGCy42PS-13" style="edgeStyle=orthogonalEdgeStyle;rounded=0;orthogonalLoop=1;jettySize=auto;html=1;" edge="1" parent="Jcjnsndz9WuinGCy42PS-3" source="Jcjnsndz9WuinGCy42PS-10" target="Jcjnsndz9WuinGCy42PS-12">
          <mxGeometry relative="1" as="geometry" />
        </mxCell>
        <mxCell id="Jcjnsndz9WuinGCy42PS-10" value="根据任务属性，组建唯一id并持久化存储" style="rounded=1;whiteSpace=wrap;html=1;fillColor=#d5e8d4;strokeColor=#82b366;" vertex="1" parent="Jcjnsndz9WuinGCy42PS-3">
          <mxGeometry x="160" y="65" width="120" height="60" as="geometry" />
        </mxCell>
        <mxCell id="Jcjnsndz9WuinGCy42PS-15" value="" style="edgeStyle=orthogonalEdgeStyle;rounded=0;orthogonalLoop=1;jettySize=auto;html=1;" edge="1" parent="Jcjnsndz9WuinGCy42PS-3" source="Jcjnsndz9WuinGCy42PS-12" target="Jcjnsndz9WuinGCy42PS-14">
          <mxGeometry relative="1" as="geometry" />
        </mxCell>
        <mxCell id="Jcjnsndz9WuinGCy42PS-12" value="根据任务属性，获取发送策略、优先级等" style="rounded=1;whiteSpace=wrap;html=1;fillColor=#d5e8d4;strokeColor=#82b366;" vertex="1" parent="Jcjnsndz9WuinGCy42PS-3">
          <mxGeometry x="320" y="65" width="120" height="60" as="geometry" />
        </mxCell>
        <mxCell id="Jcjnsndz9WuinGCy42PS-14" value="构建MsgItem消息对象" style="rounded=1;whiteSpace=wrap;html=1;fillColor=#d5e8d4;strokeColor=#82b366;" vertex="1" parent="Jcjnsndz9WuinGCy42PS-3">
          <mxGeometry x="480" y="65" width="120" height="60" as="geometry" />
        </mxCell>
        <mxCell id="Jcjnsndz9WuinGCy42PS-5" value="&lt;div style=&quot;&quot;&gt;&lt;span style=&quot;background-color: initial;&quot;&gt;狂飙任务&lt;/span&gt;&lt;/div&gt;" style="shape=singleArrow;direction=south;whiteSpace=wrap;html=1;align=right;" vertex="1" parent="1">
          <mxGeometry x="290" y="130" width="61" height="130" as="geometry" />
        </mxCell>
        <mxCell id="Jcjnsndz9WuinGCy42PS-6" value="&lt;div style=&quot;&quot;&gt;&lt;span style=&quot;background-color: initial;&quot;&gt;sop任务&lt;/span&gt;&lt;/div&gt;" style="shape=singleArrow;direction=south;whiteSpace=wrap;html=1;align=right;" vertex="1" parent="1">
          <mxGeometry x="370" y="130" width="61" height="130" as="geometry" />
        </mxCell>
        <mxCell id="Jcjnsndz9WuinGCy42PS-7" value="&lt;div style=&quot;&quot;&gt;&lt;span style=&quot;background-color: initial;&quot;&gt;在线聊天&lt;/span&gt;&lt;/div&gt;" style="shape=singleArrow;direction=south;whiteSpace=wrap;html=1;align=right;" vertex="1" parent="1">
          <mxGeometry x="458" y="130" width="61" height="130" as="geometry" />
        </mxCell>
        <mxCell id="Jcjnsndz9WuinGCy42PS-27" style="text;strokeColor=none;fillColor=none;align=left;verticalAlign=middle;spacingLeft=4;spacingRight=4;overflow=hidden;points=[[0,0.5],[1,0.5]];portConstraint=eastwest;rotatable=0;whiteSpace=wrap;html=1;" vertex="1" parent="1">
          <mxGeometry x="360.5" y="690" width="80" height="30" as="geometry" />
        </mxCell>
        <mxCell id="B8uQokDbP8Djm6eRlEMS-34" style="edgeStyle=orthogonalEdgeStyle;rounded=0;orthogonalLoop=1;jettySize=auto;html=1;" edge="1" parent="1" source="B8uQokDbP8Djm6eRlEMS-15">
          <mxGeometry relative="1" as="geometry">
            <mxPoint x="100" y="1000" as="targetPoint" />
            <Array as="points">
              <mxPoint x="20" y="645" />
              <mxPoint x="20" y="1000" />
            </Array>
          </mxGeometry>
        </mxCell>
        <mxCell id="B8uQokDbP8Djm6eRlEMS-35" value="加入消息发送队列" style="edgeLabel;html=1;align=center;verticalAlign=middle;resizable=0;points=[];" vertex="1" connectable="0" parent="B8uQokDbP8Djm6eRlEMS-34">
          <mxGeometry x="-0.1029" relative="1" as="geometry">
            <mxPoint as="offset" />
          </mxGeometry>
        </mxCell>
        <mxCell id="B8uQokDbP8Djm6eRlEMS-15" value="MsgItem-list" style="swimlane;whiteSpace=wrap;html=1;" vertex="1" parent="1">
          <mxGeometry x="100" y="530" width="654.5" height="230" as="geometry" />
        </mxCell>
        <mxCell id="B8uQokDbP8Djm6eRlEMS-8" value="MsgItem" style="swimlane;fontStyle=0;childLayout=stackLayout;horizontal=1;startSize=26;fillColor=#dae8fc;horizontalStack=0;resizeParent=1;resizeParentMax=0;resizeLast=0;collapsible=1;marginBottom=0;html=1;strokeColor=#6c8ebf;" vertex="1" parent="B8uQokDbP8Djm6eRlEMS-15">
          <mxGeometry x="64.5" y="50" width="144.75" height="154" as="geometry" />
        </mxCell>
        <mxCell id="B8uQokDbP8Djm6eRlEMS-9" value="任务ID" style="text;strokeColor=none;fillColor=none;align=left;verticalAlign=top;spacingLeft=4;spacingRight=4;overflow=hidden;rotatable=0;points=[[0,0.5],[1,0.5]];portConstraint=eastwest;whiteSpace=wrap;html=1;" vertex="1" parent="B8uQokDbP8Djm6eRlEMS-8">
          <mxGeometry y="26" width="144.75" height="24" as="geometry" />
        </mxCell>
        <mxCell id="B8uQokDbP8Djm6eRlEMS-10" value="任务类型" style="text;strokeColor=none;fillColor=none;align=left;verticalAlign=top;spacingLeft=4;spacingRight=4;overflow=hidden;rotatable=0;points=[[0,0.5],[1,0.5]];portConstraint=eastwest;whiteSpace=wrap;html=1;" vertex="1" parent="B8uQokDbP8Djm6eRlEMS-8">
          <mxGeometry y="50" width="144.75" height="26" as="geometry" />
        </mxCell>
        <mxCell id="B8uQokDbP8Djm6eRlEMS-11" value="发送间隔" style="text;strokeColor=none;fillColor=none;align=left;verticalAlign=top;spacingLeft=4;spacingRight=4;overflow=hidden;rotatable=0;points=[[0,0.5],[1,0.5]];portConstraint=eastwest;whiteSpace=wrap;html=1;" vertex="1" parent="B8uQokDbP8Djm6eRlEMS-8">
          <mxGeometry y="76" width="144.75" height="26" as="geometry" />
        </mxCell>
        <mxCell id="B8uQokDbP8Djm6eRlEMS-12" value="优先级" style="text;strokeColor=none;fillColor=none;align=left;verticalAlign=top;spacingLeft=4;spacingRight=4;overflow=hidden;rotatable=0;points=[[0,0.5],[1,0.5]];portConstraint=eastwest;whiteSpace=wrap;html=1;" vertex="1" parent="B8uQokDbP8Djm6eRlEMS-8">
          <mxGeometry y="102" width="144.75" height="26" as="geometry" />
        </mxCell>
        <mxCell id="B8uQokDbP8Djm6eRlEMS-13" value="消息内容" style="text;strokeColor=none;fillColor=none;align=left;verticalAlign=top;spacingLeft=4;spacingRight=4;overflow=hidden;rotatable=0;points=[[0,0.5],[1,0.5]];portConstraint=eastwest;whiteSpace=wrap;html=1;" vertex="1" parent="B8uQokDbP8Djm6eRlEMS-8">
          <mxGeometry y="128" width="144.75" height="26" as="geometry" />
        </mxCell>
        <mxCell id="B8uQokDbP8Djm6eRlEMS-2" value="MsgItem" style="swimlane;fontStyle=0;childLayout=stackLayout;horizontal=1;startSize=26;fillColor=#dae8fc;horizontalStack=0;resizeParent=1;resizeParentMax=0;resizeLast=0;collapsible=1;marginBottom=0;html=1;strokeColor=#6c8ebf;" vertex="1" parent="B8uQokDbP8Djm6eRlEMS-15">
          <mxGeometry x="264.5" y="50" width="144.75" height="154" as="geometry" />
        </mxCell>
        <mxCell id="B8uQokDbP8Djm6eRlEMS-3" value="任务ID" style="text;strokeColor=none;fillColor=none;align=left;verticalAlign=top;spacingLeft=4;spacingRight=4;overflow=hidden;rotatable=0;points=[[0,0.5],[1,0.5]];portConstraint=eastwest;whiteSpace=wrap;html=1;" vertex="1" parent="B8uQokDbP8Djm6eRlEMS-2">
          <mxGeometry y="26" width="144.75" height="24" as="geometry" />
        </mxCell>
        <mxCell id="B8uQokDbP8Djm6eRlEMS-4" value="任务类型" style="text;strokeColor=none;fillColor=none;align=left;verticalAlign=top;spacingLeft=4;spacingRight=4;overflow=hidden;rotatable=0;points=[[0,0.5],[1,0.5]];portConstraint=eastwest;whiteSpace=wrap;html=1;" vertex="1" parent="B8uQokDbP8Djm6eRlEMS-2">
          <mxGeometry y="50" width="144.75" height="26" as="geometry" />
        </mxCell>
        <mxCell id="B8uQokDbP8Djm6eRlEMS-5" value="发送间隔" style="text;strokeColor=none;fillColor=none;align=left;verticalAlign=top;spacingLeft=4;spacingRight=4;overflow=hidden;rotatable=0;points=[[0,0.5],[1,0.5]];portConstraint=eastwest;whiteSpace=wrap;html=1;" vertex="1" parent="B8uQokDbP8Djm6eRlEMS-2">
          <mxGeometry y="76" width="144.75" height="26" as="geometry" />
        </mxCell>
        <mxCell id="B8uQokDbP8Djm6eRlEMS-6" value="优先级" style="text;strokeColor=none;fillColor=none;align=left;verticalAlign=top;spacingLeft=4;spacingRight=4;overflow=hidden;rotatable=0;points=[[0,0.5],[1,0.5]];portConstraint=eastwest;whiteSpace=wrap;html=1;" vertex="1" parent="B8uQokDbP8Djm6eRlEMS-2">
          <mxGeometry y="102" width="144.75" height="26" as="geometry" />
        </mxCell>
        <mxCell id="B8uQokDbP8Djm6eRlEMS-7" value="消息内容" style="text;strokeColor=none;fillColor=none;align=left;verticalAlign=top;spacingLeft=4;spacingRight=4;overflow=hidden;rotatable=0;points=[[0,0.5],[1,0.5]];portConstraint=eastwest;whiteSpace=wrap;html=1;" vertex="1" parent="B8uQokDbP8Djm6eRlEMS-2">
          <mxGeometry y="128" width="144.75" height="26" as="geometry" />
        </mxCell>
        <mxCell id="Jcjnsndz9WuinGCy42PS-28" value="MsgItem" style="swimlane;fontStyle=0;childLayout=stackLayout;horizontal=1;startSize=26;fillColor=#dae8fc;horizontalStack=0;resizeParent=1;resizeParentMax=0;resizeLast=0;collapsible=1;marginBottom=0;html=1;strokeColor=#6c8ebf;" vertex="1" parent="B8uQokDbP8Djm6eRlEMS-15">
          <mxGeometry x="454.5" y="50" width="144.75" height="154" as="geometry" />
        </mxCell>
        <mxCell id="Jcjnsndz9WuinGCy42PS-30" value="任务ID" style="text;strokeColor=none;fillColor=none;align=left;verticalAlign=top;spacingLeft=4;spacingRight=4;overflow=hidden;rotatable=0;points=[[0,0.5],[1,0.5]];portConstraint=eastwest;whiteSpace=wrap;html=1;" vertex="1" parent="Jcjnsndz9WuinGCy42PS-28">
          <mxGeometry y="26" width="144.75" height="24" as="geometry" />
        </mxCell>
        <mxCell id="Jcjnsndz9WuinGCy42PS-31" value="任务类型" style="text;strokeColor=none;fillColor=none;align=left;verticalAlign=top;spacingLeft=4;spacingRight=4;overflow=hidden;rotatable=0;points=[[0,0.5],[1,0.5]];portConstraint=eastwest;whiteSpace=wrap;html=1;" vertex="1" parent="Jcjnsndz9WuinGCy42PS-28">
          <mxGeometry y="50" width="144.75" height="26" as="geometry" />
        </mxCell>
        <mxCell id="Jcjnsndz9WuinGCy42PS-34" value="发送间隔" style="text;strokeColor=none;fillColor=none;align=left;verticalAlign=top;spacingLeft=4;spacingRight=4;overflow=hidden;rotatable=0;points=[[0,0.5],[1,0.5]];portConstraint=eastwest;whiteSpace=wrap;html=1;" vertex="1" parent="Jcjnsndz9WuinGCy42PS-28">
          <mxGeometry y="76" width="144.75" height="26" as="geometry" />
        </mxCell>
        <mxCell id="Jcjnsndz9WuinGCy42PS-33" value="优先级" style="text;strokeColor=none;fillColor=none;align=left;verticalAlign=top;spacingLeft=4;spacingRight=4;overflow=hidden;rotatable=0;points=[[0,0.5],[1,0.5]];portConstraint=eastwest;whiteSpace=wrap;html=1;" vertex="1" parent="Jcjnsndz9WuinGCy42PS-28">
          <mxGeometry y="102" width="144.75" height="26" as="geometry" />
        </mxCell>
        <mxCell id="Jcjnsndz9WuinGCy42PS-32" value="消息内容" style="text;strokeColor=none;fillColor=none;align=left;verticalAlign=top;spacingLeft=4;spacingRight=4;overflow=hidden;rotatable=0;points=[[0,0.5],[1,0.5]];portConstraint=eastwest;whiteSpace=wrap;html=1;" vertex="1" parent="Jcjnsndz9WuinGCy42PS-28">
          <mxGeometry y="128" width="144.75" height="26" as="geometry" />
        </mxCell>
        <mxCell id="B8uQokDbP8Djm6eRlEMS-23" value="" style="endArrow=none;dashed=1;html=1;dashPattern=1 3;strokeWidth=2;rounded=0;" edge="1" parent="B8uQokDbP8Djm6eRlEMS-15">
          <mxGeometry width="50" height="50" relative="1" as="geometry">
            <mxPoint x="20" y="115" as="sourcePoint" />
            <mxPoint x="50" y="115" as="targetPoint" />
          </mxGeometry>
        </mxCell>
        <mxCell id="B8uQokDbP8Djm6eRlEMS-24" value="SendMsgService" style="swimlane;" vertex="1" parent="1">
          <mxGeometry x="100" y="870" width="670" height="230" as="geometry" />
        </mxCell>
        <mxCell id="B8uQokDbP8Djm6eRlEMS-25" value="" style="shape=process;whiteSpace=wrap;html=1;backgroundOutline=1;" vertex="1" parent="B8uQokDbP8Djm6eRlEMS-24">
          <mxGeometry x="14.75" y="100" width="399.5" height="60" as="geometry" />
        </mxCell>
        <mxCell id="B8uQokDbP8Djm6eRlEMS-26" value="MsgItem" style="swimlane;fontStyle=0;childLayout=stackLayout;horizontal=1;startSize=26;fillColor=#dae8fc;horizontalStack=0;resizeParent=1;resizeParentMax=0;resizeLast=0;collapsible=1;marginBottom=0;html=1;strokeColor=#6c8ebf;" vertex="1" parent="B8uQokDbP8Djm6eRlEMS-24">
          <mxGeometry x="70" y="115" width="50" height="35" as="geometry" />
        </mxCell>
        <mxCell id="B8uQokDbP8Djm6eRlEMS-30" value="MsgItem" style="swimlane;fontStyle=0;childLayout=stackLayout;horizontal=1;startSize=26;fillColor=#dae8fc;horizontalStack=0;resizeParent=1;resizeParentMax=0;resizeLast=0;collapsible=1;marginBottom=0;html=1;strokeColor=#6c8ebf;" vertex="1" parent="B8uQokDbP8Djm6eRlEMS-24">
          <mxGeometry x="130" y="115" width="50" height="35" as="geometry" />
        </mxCell>
        <mxCell id="B8uQokDbP8Djm6eRlEMS-31" value="MsgItem" style="swimlane;fontStyle=0;childLayout=stackLayout;horizontal=1;startSize=26;fillColor=#dae8fc;horizontalStack=0;resizeParent=1;resizeParentMax=0;resizeLast=0;collapsible=1;marginBottom=0;html=1;strokeColor=#6c8ebf;" vertex="1" parent="B8uQokDbP8Djm6eRlEMS-24">
          <mxGeometry x="190" y="115" width="50" height="35" as="geometry" />
        </mxCell>
        <mxCell id="B8uQokDbP8Djm6eRlEMS-32" value="MsgItem" style="swimlane;fontStyle=0;childLayout=stackLayout;horizontal=1;startSize=26;fillColor=#dae8fc;horizontalStack=0;resizeParent=1;resizeParentMax=0;resizeLast=0;collapsible=1;marginBottom=0;html=1;strokeColor=#6c8ebf;" vertex="1" parent="B8uQokDbP8Djm6eRlEMS-24">
          <mxGeometry x="250" y="115" width="50" height="35" as="geometry" />
        </mxCell>
        <mxCell id="B8uQokDbP8Djm6eRlEMS-33" value="MsgItem" style="swimlane;fontStyle=0;childLayout=stackLayout;horizontal=1;startSize=26;fillColor=#dae8fc;horizontalStack=0;resizeParent=1;resizeParentMax=0;resizeLast=0;collapsible=1;marginBottom=0;html=1;strokeColor=#6c8ebf;" vertex="1" parent="B8uQokDbP8Djm6eRlEMS-24">
          <mxGeometry x="310.5" y="115" width="49.5" height="35" as="geometry" />
        </mxCell>
        <mxCell id="B8uQokDbP8Djm6eRlEMS-37" value="优先级队列" style="text;html=1;align=center;verticalAlign=middle;whiteSpace=wrap;rounded=0;" vertex="1" parent="B8uQokDbP8Djm6eRlEMS-24">
          <mxGeometry x="120" y="70" width="140" height="30" as="geometry" />
        </mxCell>
        <mxCell id="B8uQokDbP8Djm6eRlEMS-38" value="队尾" style="text;html=1;align=center;verticalAlign=middle;whiteSpace=wrap;rounded=0;" vertex="1" parent="B8uQokDbP8Djm6eRlEMS-24">
          <mxGeometry y="117.5" width="60" height="30" as="geometry" />
        </mxCell>
        <mxCell id="B8uQokDbP8Djm6eRlEMS-39" value="队头" style="text;html=1;align=center;verticalAlign=middle;whiteSpace=wrap;rounded=0;" vertex="1" parent="B8uQokDbP8Djm6eRlEMS-24">
          <mxGeometry x="370" y="117.5" width="60" height="30" as="geometry" />
        </mxCell>
        <mxCell id="B8uQokDbP8Djm6eRlEMS-41" value="逆向SDk" style="swimlane;whiteSpace=wrap;html=1;" vertex="1" parent="B8uQokDbP8Djm6eRlEMS-24">
          <mxGeometry x="490" y="80" width="170" height="90" as="geometry" />
        </mxCell>
        <mxCell id="B8uQokDbP8Djm6eRlEMS-42" value="发送文本、图片、视频等消息" style="text;html=1;align=center;verticalAlign=middle;resizable=0;points=[];autosize=1;strokeColor=none;fillColor=none;" vertex="1" parent="B8uQokDbP8Djm6eRlEMS-41">
          <mxGeometry x="-10" y="38" width="180" height="30" as="geometry" />
        </mxCell>
        <mxCell id="B8uQokDbP8Djm6eRlEMS-43" value="顺序弹出" style="shape=singleArrow;whiteSpace=wrap;html=1;" vertex="1" parent="B8uQokDbP8Djm6eRlEMS-24">
          <mxGeometry x="424.25" y="102.5" width="55.75" height="60" as="geometry" />
        </mxCell>
        <mxCell id="B8uQokDbP8Djm6eRlEMS-44" value="" style="endArrow=none;dashed=1;html=1;dashPattern=1 3;strokeWidth=2;rounded=0;" edge="1" parent="1">
          <mxGeometry width="50" height="50" relative="1" as="geometry">
            <mxPoint x="540" y="190" as="sourcePoint" />
            <mxPoint x="570" y="190" as="targetPoint" />
          </mxGeometry>
        </mxCell>
      </root>
    </mxGraphModel>
  </diagram>
  <diagram id="WPPTOhbSxdWqPbJRMjFf" name="插队示例图">
    <mxGraphModel dx="1434" dy="746" grid="1" gridSize="10" guides="1" tooltips="1" connect="1" arrows="1" fold="1" page="1" pageScale="1" pageWidth="827" pageHeight="1169" math="0" shadow="0">
      <root>
        <mxCell id="0" />
        <mxCell id="1" parent="0" />
        <mxCell id="HJai2LxsL0l4nysZJofL-1" value="" style="shape=process;whiteSpace=wrap;html=1;backgroundOutline=1;" vertex="1" parent="1">
          <mxGeometry x="10" y="540" width="790" height="60" as="geometry" />
        </mxCell>
        <mxCell id="PXh9Bk2FZ-48hZxy1cGL-1" value="A1" style="swimlane;fontStyle=0;childLayout=stackLayout;horizontal=1;startSize=26;fillColor=#dae8fc;horizontalStack=0;resizeParent=1;resizeParentMax=0;resizeLast=0;collapsible=1;marginBottom=0;html=1;strokeColor=#6c8ebf;" vertex="1" parent="1">
          <mxGeometry x="650" y="552.5" width="49.5" height="35" as="geometry" />
        </mxCell>
        <mxCell id="PXh9Bk2FZ-48hZxy1cGL-2" value="队头" style="text;html=1;align=center;verticalAlign=middle;whiteSpace=wrap;rounded=0;" vertex="1" parent="1">
          <mxGeometry x="730" y="555" width="60" height="30" as="geometry" />
        </mxCell>
        <mxCell id="PXh9Bk2FZ-48hZxy1cGL-3" value="队尾" style="text;html=1;align=center;verticalAlign=middle;whiteSpace=wrap;rounded=0;" vertex="1" parent="1">
          <mxGeometry x="20" y="552.5" width="60" height="30" as="geometry" />
        </mxCell>
        <mxCell id="PXh9Bk2FZ-48hZxy1cGL-4" value="A2" style="swimlane;fontStyle=0;childLayout=stackLayout;horizontal=1;startSize=26;fillColor=#dae8fc;horizontalStack=0;resizeParent=1;resizeParentMax=0;resizeLast=0;collapsible=1;marginBottom=0;html=1;strokeColor=#6c8ebf;" vertex="1" parent="1">
          <mxGeometry x="580" y="552.5" width="49.5" height="35" as="geometry" />
        </mxCell>
        <mxCell id="PXh9Bk2FZ-48hZxy1cGL-5" value="A200" style="swimlane;fontStyle=0;childLayout=stackLayout;horizontal=1;startSize=26;fillColor=#dae8fc;horizontalStack=0;resizeParent=1;resizeParentMax=0;resizeLast=0;collapsible=1;marginBottom=0;html=1;strokeColor=#6c8ebf;" vertex="1" parent="1">
          <mxGeometry x="470" y="552.5" width="49.5" height="35" as="geometry" />
        </mxCell>
        <mxCell id="PXh9Bk2FZ-48hZxy1cGL-9" value="。。。" style="text;html=1;align=center;verticalAlign=middle;whiteSpace=wrap;rounded=0;" vertex="1" parent="1">
          <mxGeometry x="520" y="549.5" width="60" height="38" as="geometry" />
        </mxCell>
        <mxCell id="PXh9Bk2FZ-48hZxy1cGL-10" value="B1" style="swimlane;fontStyle=0;childLayout=stackLayout;horizontal=1;startSize=26;fillColor=#d5e8d4;horizontalStack=0;resizeParent=1;resizeParentMax=0;resizeLast=0;collapsible=1;marginBottom=0;html=1;strokeColor=#82b366;" vertex="1" parent="1">
          <mxGeometry x="400" y="553" width="49.5" height="35" as="geometry" />
        </mxCell>
        <mxCell id="PXh9Bk2FZ-48hZxy1cGL-14" value="。。。" style="text;html=1;align=center;verticalAlign=middle;whiteSpace=wrap;rounded=0;" vertex="1" parent="1">
          <mxGeometry x="349.5" y="547" width="50.5" height="43" as="geometry" />
        </mxCell>
        <mxCell id="PXh9Bk2FZ-48hZxy1cGL-17" value="A201" style="swimlane;fontStyle=0;childLayout=stackLayout;horizontal=1;startSize=26;fillColor=#dae8fc;horizontalStack=0;resizeParent=1;resizeParentMax=0;resizeLast=0;collapsible=1;marginBottom=0;html=1;strokeColor=#6c8ebf;" vertex="1" parent="1">
          <mxGeometry x="230" y="552.5" width="49.5" height="35" as="geometry" />
        </mxCell>
        <mxCell id="PXh9Bk2FZ-48hZxy1cGL-18" value="B30" style="swimlane;fontStyle=0;childLayout=stackLayout;horizontal=1;startSize=26;fillColor=#d5e8d4;horizontalStack=0;resizeParent=1;resizeParentMax=0;resizeLast=0;collapsible=1;marginBottom=0;html=1;strokeColor=#82b366;" vertex="1" parent="1">
          <mxGeometry x="300" y="553" width="49.5" height="35" as="geometry" />
        </mxCell>
        <mxCell id="PXh9Bk2FZ-48hZxy1cGL-19" value="。。。" style="text;html=1;align=center;verticalAlign=middle;whiteSpace=wrap;rounded=0;" vertex="1" parent="1">
          <mxGeometry x="179.5" y="546" width="50.5" height="43" as="geometry" />
        </mxCell>
        <mxCell id="PXh9Bk2FZ-48hZxy1cGL-20" value="A500" style="swimlane;fontStyle=0;childLayout=stackLayout;horizontal=1;startSize=26;fillColor=#dae8fc;horizontalStack=0;resizeParent=1;resizeParentMax=0;resizeLast=0;collapsible=1;marginBottom=0;html=1;strokeColor=#6c8ebf;" vertex="1" parent="1">
          <mxGeometry x="120" y="552.5" width="49.5" height="35" as="geometry" />
        </mxCell>
      </root>
    </mxGraphModel>
  </diagram>
</mxfile>
